<svg width="73.118" height="68.455" enable-background="new 0 0 250 102" version="1.1" viewBox="0 0 73.118 68.455" xmlns="http://www.w3.org/2000/svg"><path d="m31.791 49.313v13.49l0.028 0.502-0.521-0.033h-6.538l-0.516 0.033 0.028-0.502v-12.3c0-3.59-2.063-5.301-4.612-5.301-2.541 0-4.599 1.711-4.599 5.301v12.3l0.023 0.502-0.516-0.033h-6.539l-0.521 0.033 0.038-0.502v-12.3c0-6.698 5.423-12.126 12.112-12.126 2.85 0 5.47 0.994 7.537 2.634l0.149 0.45 0.141-0.441c0.216-0.234 0.427-0.45 0.666-0.661l0.44-0.108-0.412-0.178c-1.786-2.001-2.893-4.631-2.893-7.514v-26.895l-0.023-0.515 0.521 0.023h6.534l0.516-0.023-0.016 0.515v26.896c0 2.92 1.668 4.308 3.745 4.308 2.063 0 3.74-1.387 3.74-4.308v-26.896l-0.028-0.515 0.525 0.023h6.543l0.511-0.023-0.037 0.515v26.896c0 2.883-1.097 5.512-2.878 7.514l-0.417 0.178 0.454 0.108c0.226 0.211 0.44 0.426 0.656 0.661l0.146 0.441 0.136-0.45c2.081-1.641 4.697-2.634 7.542-2.634 6.698 0 12.117 5.428 12.117 12.126v12.3l0.037 0.502-0.521-0.033h-6.538l-0.521 0.033 0.032-0.502v-12.3c0-3.59-2.063-5.301-4.607-5.301-2.55 0-4.612 1.711-4.612 5.301v12.3l0.028 0.502-0.511-0.033h-6.544l-0.516 0.033 0.038-0.502v-13.49c0-3.717-2.147-5.489-4.776-5.489-2.638-1e-3 -4.771 1.771-4.771 5.488" fill="#0059ab"/></svg>
